<svg width="480" height="248" xmlns="http://www.w3.org/2000/svg">

 <g>
  <title>background</title>
  <rect fill="none" id="canvas_background" height="250" width="482" y="-1" x="-1"/>
 </g>
 <g>
  <title>Layer 1</title>
  <path id="svg_1" fill="#FDB62F" d="m8,199.98l80,0c0,-22.091 17.909,-40 40,-40s40,17.909 40,40l192,0c0,-22.091 17.909,-40 40,-40s40,17.909 40,40l32,0l0,-56c0,-17.673 -14.327,-32 -32,-32l-80,0l0,-72l-352,0l0,160z"/>
  <g id="svg_2">
   <path id="svg_3" fill="#808080" d="m128,159.98l0,0c22.091,0 40,17.909 40,40l0,0c0,22.091 -17.909,40 -40,40l0,0c-22.091,0 -40,-17.909 -40,-40l0,0c0,-22.092 17.909,-40 40,-40z"/>
   <path id="svg_4" fill="#808080" d="m400,159.98l0,0c22.091,0 40,17.909 40,40l0,0c0,22.091 -17.909,40 -40,40l0,0c-22.091,0 -40,-17.909 -40,-40l0,0c0,-22.092 17.909,-40 40,-40z"/>
  </g>
  <path id="svg_5" fill="#89C9D2" d="m296,135.98l32,0l0,64l-32,0l0,-64z"/>
  <path id="svg_6" fill="#6CBBC7" d="m264,135.98l32,0l0,64l-32,0l0,-64z"/>
  <path id="svg_7" fill="#36717A" d="m40,71.98l48,0l0,40l-48,0l0,-40z"/>
  <path id="svg_8" fill="#6CBBC7" d="m88,71.98l48,0l0,40l-48,0l0,-40z"/>
  <path id="svg_9" fill="#89C9D2" d="m136,71.98l48,0l0,40l-48,0l0,-40z"/>
  <path id="svg_10" fill="#A7D6DD" d="m184,71.98l48,0l0,40l-48,0l0,-40z"/>
  <g id="svg_11">
   <path id="svg_12" fill="#B3B3B3" d="m128,191.98l0,0c4.418,0 8,3.582 8,8l0,0c0,4.418 -3.582,8 -8,8l0,0c-4.418,0 -8,-3.582 -8,-8l0,0c0,-4.418 3.582,-8 8,-8z"/>
   <path id="svg_13" fill="#B3B3B3" d="m400,191.98l0,0c4.418,0 8,3.582 8,8l0,0c0,4.418 -3.582,8 -8,8l0,0c-4.418,0 -8,-3.582 -8,-8l0,0c0,-4.418 3.582,-8 8,-8z"/>
  </g>
  <path id="svg_14" fill="#FFA900" d="m8,39.98l0,-16c0,-8.837 7.163,-16 16,-16l320,0c8.837,0 16,7.163 16,16l0,16l-352,0z"/>
  <path id="svg_15" fill="#A7D6DD" d="m296,71.98l32,0l0,64l-32,0l0,-64z"/>
  <path id="svg_16" fill="#89C9D2" d="m264,71.98l32,0l0,64l-32,0l0,-64z"/>
  <path id="svg_17" d="m440,103.98l-72,0l0,-40l8,0c4.418,0 8,3.582 8,8l0,16l16,0l0,-16c0,-13.255 -10.745,-24 -24,-24l-8,0l0,-24c0,-13.255 -10.745,-24 -24,-24l-320,0c-13.255,0 -24,10.745 -24,24l0,184l80.72,0c4.365,26.112 29.071,43.742 55.183,39.377c20.185,-3.374 36.003,-19.191 39.377,-39.377l177.44,0c4.365,26.112 29.071,43.742 55.183,39.377c20.185,-3.374 36.003,-19.191 39.377,-39.377l32.72,0l0,-64c-0.026,-22.081 -17.92,-39.974 -40,-40zm-424,-80c0,-4.418 3.582,-8 8,-8l320,0c4.418,0 8,3.582 8,8l0,8l-336,0l0,-8zm112,208c-17.673,0 -32,-14.327 -32,-32s14.327,-32 32,-32s32,14.327 32,32s-14.327,32 -32,32zm144,-40l0,-48l16,0l0,48l-16,0zm48,-64l-16,0l0,-48l16,0l0,48zm-32,0l-16,0l0,-48l16,0l0,48zm16,64l0,-48l16,0l0,48l-16,0zm96,40c-17.673,0 -32,-14.327 -32,-32s14.327,-32 32,-32s32,14.327 32,32s-14.327,32 -32,32zm64,-40l-16.664,0c0,-0.176 -0.104,-0.328 -0.128,-0.504c-0.437,-2.446 -1.066,-4.853 -1.88,-7.2c-0.136,-0.4 -0.288,-0.8 -0.432,-1.176c-0.854,-2.297 -1.884,-4.525 -3.08,-6.664c-0.16,-0.288 -0.344,-0.552 -0.504,-0.8c-1.281,-2.197 -2.733,-4.289 -4.344,-6.256l-0.088,-0.104c-1.636,-1.943 -3.423,-3.754 -5.344,-5.416c-0.2,-0.176 -0.392,-0.368 -0.6,-0.544c-1.876,-1.571 -3.868,-2.996 -5.96,-4.264c-0.344,-0.208 -0.688,-0.424 -1.04,-0.632c-2.096,-1.209 -4.281,-2.258 -6.536,-3.136c-0.392,-0.152 -0.8,-0.296 -1.192,-0.44c-2.344,-0.855 -4.751,-1.524 -7.2,-2c-0.312,-0.064 -0.64,-0.088 -0.96,-0.144c-5.326,-0.975 -10.786,-0.975 -16.112,0c-0.32,0.056 -0.64,0.088 -0.96,0.144c-2.449,0.476 -4.856,1.145 -7.2,2c-0.4,0.144 -0.8,0.28 -1.192,0.44c-2.255,0.878 -4.44,1.927 -6.536,3.136c-0.352,0.2 -0.688,0.416 -1.04,0.632c-2.092,1.268 -4.084,2.693 -5.96,4.264c-0.208,0.176 -0.392,0.368 -0.6,0.544c-1.921,1.662 -3.708,3.473 -5.344,5.416l-0.088,0.104c-1.611,1.967 -3.063,4.059 -4.344,6.256c-0.168,0.28 -0.344,0.552 -0.504,0.8c-1.196,2.139 -2.226,4.367 -3.08,6.664c-0.144,0.392 -0.296,0.8 -0.432,1.176c-0.814,2.347 -1.443,4.754 -1.88,7.2c0,0.168 -0.104,0.328 -0.128,0.504l-16.648,0l0,-128l-80,0l0,96l-64,0l0,16l64,0l0,16l-80.664,0c0,-0.176 -0.104,-0.328 -0.128,-0.504c-0.437,-2.446 -1.066,-4.853 -1.88,-7.2c-0.136,-0.4 -0.288,-0.8 -0.432,-1.176c-0.854,-2.297 -1.884,-4.525 -3.08,-6.664c-0.16,-0.288 -0.344,-0.552 -0.504,-0.8c-1.281,-2.197 -2.733,-4.289 -4.344,-6.256l-0.088,-0.104c-1.636,-1.943 -3.423,-3.754 -5.344,-5.416c-0.2,-0.176 -0.392,-0.368 -0.6,-0.544c-1.876,-1.571 -3.868,-2.996 -5.96,-4.264c-0.344,-0.208 -0.688,-0.424 -1.04,-0.632c-2.096,-1.209 -4.281,-2.258 -6.536,-3.136c-0.392,-0.152 -0.8,-0.296 -1.192,-0.44c-2.344,-0.855 -4.751,-1.524 -7.2,-2c-0.312,-0.064 -0.64,-0.088 -0.96,-0.144c-5.326,-0.975 -10.786,-0.975 -16.112,0c-0.32,0.056 -0.64,0.088 -0.96,0.144c-2.449,0.476 -4.856,1.145 -7.2,2c-0.4,0.144 -0.8,0.28 -1.192,0.44c-2.255,0.878 -4.44,1.927 -6.536,3.136c-0.352,0.2 -0.688,0.416 -1.04,0.632c-2.092,1.268 -4.084,2.693 -5.96,4.264c-0.208,0.176 -0.392,0.368 -0.6,0.544c-1.921,1.662 -3.708,3.473 -5.344,5.416l-0.088,0.104c-1.611,1.967 -3.063,4.059 -4.344,6.256c-0.168,0.28 -0.344,0.552 -0.504,0.8c-1.196,2.139 -2.226,4.367 -3.08,6.664c-0.144,0.392 -0.296,0.8 -0.432,1.176c-0.814,2.347 -1.443,4.754 -1.88,7.2c0,0.168 -0.104,0.328 -0.128,0.504l-64.648,0l0,-16l48,0l0,-16l-48,0l0,-112l336,0l0,72l88,0c13.255,0 24,10.745 24,24l-16,0l0,16l16,0l0,32z"/>
  <path id="svg_18" d="m176,63.98l-144,0l0,56l208,0l0,-56l-64,0zm-96,40l-32,0l0,-24l32,0l0,24zm48,0l-32,0l0,-24l32,0l0,24zm48,0l-32,0l0,-24l32,0l0,24zm48,-24l0,24l-32,0l0,-24l32,0z"/>
  <circle id="svg_19" r="16" cy="199.98" cx="128"/>
  <circle id="svg_20" r="16" cy="199.98" cx="400"/>
  <g id="svg_21"/>
  <g id="svg_22"/>
  <g id="svg_23"/>
  <g id="svg_24"/>
  <g id="svg_25"/>
  <g id="svg_26"/>
  <g id="svg_27"/>
  <g id="svg_28"/>
  <g id="svg_29"/>
  <g id="svg_30"/>
  <g id="svg_31"/>
  <g id="svg_32"/>
  <g id="svg_33"/>
  <g id="svg_34"/>
  <g id="svg_35"/>
 </g>
</svg>